<mxfile host="app.diagrams.net" modified="2022-05-23T08:36:01.323Z" agent="5.0 (Macintosh; Intel Mac OS X 10_15_7) AppleWebKit/537.36 (KHTML, like Gecko) Chrome/101.0.4951.64 Safari/537.36" etag="tkcydOSVoIctgGatgqPY" version="17.4.5" type="github">
  <diagram id="TtMCSctBvf0-14zeVDCl" name="Page-1">
    <mxGraphModel dx="1018" dy="602" grid="1" gridSize="10" guides="1" tooltips="1" connect="1" arrows="1" fold="1" page="1" pageScale="1" pageWidth="827" pageHeight="1169" math="0" shadow="0">
      <root>
        <mxCell id="0" />
        <mxCell id="1" parent="0" />
        <mxCell id="uUmEyOxJ7r_qPFl0_ZkD-13" value="" style="rounded=0;whiteSpace=wrap;html=1;fontSize=25;dashed=1;" parent="1" vertex="1">
          <mxGeometry x="160" y="355" width="500" height="215" as="geometry" />
        </mxCell>
        <mxCell id="uUmEyOxJ7r_qPFl0_ZkD-1" value="&lt;font style=&quot;font-size: 23px&quot;&gt;缺陷报告&lt;/font&gt;" style="rounded=1;whiteSpace=wrap;html=1;" parent="1" vertex="1">
          <mxGeometry x="230" y="170" width="120" height="60" as="geometry" />
        </mxCell>
        <mxCell id="uUmEyOxJ7r_qPFl0_ZkD-3" value="" style="verticalLabelPosition=bottom;verticalAlign=top;html=1;shape=mxgraph.basic.layered_rect;dx=10;outlineConnect=0;" parent="1" vertex="1">
          <mxGeometry x="430" y="170" width="100" height="60" as="geometry" />
        </mxCell>
        <mxCell id="uUmEyOxJ7r_qPFl0_ZkD-4" value="&lt;font style=&quot;font-size: 22px&quot;&gt;源文件&lt;/font&gt;" style="text;html=1;strokeColor=none;fillColor=none;align=center;verticalAlign=middle;whiteSpace=wrap;rounded=0;" parent="1" vertex="1">
          <mxGeometry x="440" y="180" width="70" height="30" as="geometry" />
        </mxCell>
        <mxCell id="uUmEyOxJ7r_qPFl0_ZkD-5" value="" style="shape=singleArrow;whiteSpace=wrap;html=1;rotation=90;" parent="1" vertex="1">
          <mxGeometry x="270" y="250" width="40" height="30" as="geometry" />
        </mxCell>
        <mxCell id="uUmEyOxJ7r_qPFl0_ZkD-6" value="" style="shape=singleArrow;whiteSpace=wrap;html=1;rotation=90;" parent="1" vertex="1">
          <mxGeometry x="460" y="250" width="40" height="30" as="geometry" />
        </mxCell>
        <mxCell id="uUmEyOxJ7r_qPFl0_ZkD-7" value="&lt;font style=&quot;font-size: 25px&quot;&gt;编码&lt;/font&gt;" style="rounded=0;whiteSpace=wrap;html=1;" parent="1" vertex="1">
          <mxGeometry x="230" y="290" width="120" height="40" as="geometry" />
        </mxCell>
        <mxCell id="uUmEyOxJ7r_qPFl0_ZkD-8" value="&lt;font style=&quot;font-size: 25px&quot;&gt;编码&lt;/font&gt;" style="rounded=0;whiteSpace=wrap;html=1;" parent="1" vertex="1">
          <mxGeometry x="423" y="290" width="120" height="35" as="geometry" />
        </mxCell>
        <mxCell id="uUmEyOxJ7r_qPFl0_ZkD-9" value="&lt;font style=&quot;font-size: 18px&quot;&gt;神经网络&lt;br&gt;（自然语言）&lt;/font&gt;" style="rounded=0;whiteSpace=wrap;html=1;fontSize=25;" parent="1" vertex="1">
          <mxGeometry x="210" y="380" width="160" height="60" as="geometry" />
        </mxCell>
        <mxCell id="uUmEyOxJ7r_qPFl0_ZkD-10" value="&lt;font style=&quot;font-size: 19px&quot;&gt;神经网络&lt;br&gt;（程序语言）&lt;/font&gt;" style="rounded=0;whiteSpace=wrap;html=1;fontSize=25;" parent="1" vertex="1">
          <mxGeometry x="414" y="380" width="160" height="60" as="geometry" />
        </mxCell>
        <mxCell id="uUmEyOxJ7r_qPFl0_ZkD-11" value="全连接层" style="rounded=0;whiteSpace=wrap;html=1;fontSize=25;" parent="1" vertex="1">
          <mxGeometry x="250" y="480" width="290" height="60" as="geometry" />
        </mxCell>
        <mxCell id="uUmEyOxJ7r_qPFl0_ZkD-12" value="输出" style="rounded=0;whiteSpace=wrap;html=1;fontSize=25;" parent="1" vertex="1">
          <mxGeometry x="320" y="580" width="150" height="60" as="geometry" />
        </mxCell>
        <mxCell id="uUmEyOxJ7r_qPFl0_ZkD-14" value="" style="shape=singleArrow;whiteSpace=wrap;html=1;rotation=90;" parent="1" vertex="1">
          <mxGeometry x="270" y="340" width="40" height="30" as="geometry" />
        </mxCell>
        <mxCell id="uUmEyOxJ7r_qPFl0_ZkD-17" value="" style="shape=singleArrow;whiteSpace=wrap;html=1;rotation=90;" parent="1" vertex="1">
          <mxGeometry x="463" y="335" width="40" height="30" as="geometry" />
        </mxCell>
        <mxCell id="uUmEyOxJ7r_qPFl0_ZkD-18" value="" style="shape=singleArrow;whiteSpace=wrap;html=1;rotation=90;" parent="1" vertex="1">
          <mxGeometry x="275" y="445" width="30" height="30" as="geometry" />
        </mxCell>
        <mxCell id="uUmEyOxJ7r_qPFl0_ZkD-20" value="" style="shape=singleArrow;whiteSpace=wrap;html=1;rotation=90;" parent="1" vertex="1">
          <mxGeometry x="473" y="445" width="30" height="30" as="geometry" />
        </mxCell>
        <mxCell id="uUmEyOxJ7r_qPFl0_ZkD-21" value="" style="shape=singleArrow;whiteSpace=wrap;html=1;rotation=90;" parent="1" vertex="1">
          <mxGeometry x="373" y="544" width="30" height="30" as="geometry" />
        </mxCell>
        <mxCell id="QSlKrbzwP-CuKW_MTEFQ-1" value="&lt;span style=&quot;color: rgb(0 , 0 , 0) ; font-family: &amp;#34;helvetica&amp;#34; ; font-size: 18px ; font-style: normal ; font-weight: 400 ; letter-spacing: normal ; text-align: center ; text-indent: 0px ; text-transform: none ; word-spacing: 0px ; background-color: rgb(248 , 249 , 250) ; display: inline ; float: none&quot;&gt;CNN&lt;br&gt;LSTM&lt;/span&gt;" style="text;html=1;strokeColor=none;fillColor=none;align=center;verticalAlign=middle;whiteSpace=wrap;rounded=0;dashed=1;fontSize=22;" vertex="1" parent="1">
          <mxGeometry x="590" y="395" width="60" height="30" as="geometry" />
        </mxCell>
      </root>
    </mxGraphModel>
  </diagram>
</mxfile>
